<svg xmlns="http://www.w3.org/2000/svg" width="1600" height="400" viewBox="0 0 1600 400">
  <defs><linearGradient id="g" x1="0" x2="0" y1="0" y2="1"><stop offset="0" stop-color="#0f6b9b"/><stop offset="1" stop-color="#072a45"/></linearGradient></defs>
  <rect width="1600" height="400" fill="url(#g)"/>
  <g fill="rgba(255,255,255,0.05)">
    <rect x="40" y="220" width="60" height="120" rx="4"/>
    <rect x="140" y="180" width="80" height="160" rx="4"/>
    <rect x="260" y="200" width="50" height="140" rx="4"/>
    <rect x="380" y="150" width="100" height="190" rx="4"/>
    <rect x="520" y="210" width="40" height="130" rx="4"/>
    <rect x="640" y="170" width="70" height="170" rx="4"/>
    <rect x="820" y="200" width="60" height="140" rx="4"/>
    <rect x="980" y="160" width="100" height="180" rx="4"/>
    <rect x="1160" y="210" width="50" height="130" rx="4"/>
    <rect x="1320" y="180" width="90" height="160" rx="4"/>
  </g>
  <g stroke="rgba(255,255,255,0.03)" stroke-width="1">
    <defs><pattern id="p" width="100" height="100" patternUnits="userSpaceOnUse"><path d="M100 0 L0 0 0 100" /></pattern></defs>
    <rect width="1600" height="400" fill="url(#p)" />
  </g>
</svg>
